# xmcd
#
# Track frame offsets:
#	150
#	15097
#	31294
#	47044
#	63047
#	80362
#	99147
#	119411
#	138471
#	153799
#	173654
#	187878
#	203704
#	222453
#	241444
#
# Disc length: 3406
#
# Revision: 1
# Processed by: cddbd v1.5.1PL0 Copyright (c) Steve Scherf et al.
# Submitted via: audiograbber 1.82.00
# Normalized: r0:DSETVAR1,TDELIM( - )
#
DISCID=b40d4c0f
DTITLE=Various Artist - Cdx Volume 355
DYEAR=2004
DGENRE=
TTITLE0=Hank Willams Jr. - Devil In A Bottle
TTITLE1=Lee Ann Womack - I May Hate Myself In The Morning
TTITLE2=Brad Cotter - I Miss Me
TTITLE3=Brad Paisley - Mud On The Tires
TTITLE4=Jimmy Wayne - Paper Angels
TTITLE5=Julie Roberts - The Chance
TTITLE6=Sara Evans - Tonight
TTITLE7=Gertchen Wilson - When I Think About Cheatin
TTITLE8=Craig Morgan - That's What I Love About Sunday
TTITLE9=David Frizzell - Warm Spanish Wine
TTITLE10=0ne Mile South - Make Somethin Of It
TTITLE11=Brad and Shelly - He Only Talks About Her When He Drinks
TTITLE12=Drew Womack - Hey Daisy
TTITLE13=Michele Mccord - Little Things
TTITLE14=Kathy Kiefer - Rush
EXTD=
EXTT0=
EXTT1=
EXTT2=
EXTT3=
EXTT4=
EXTT5=
EXTT6=
EXTT7=
EXTT8=
EXTT9=
EXTT10=
EXTT11=
EXTT12=
EXTT13=
EXTT14=
PLAYORDER=
